# xmcd
#
# Track frame offsets:
#	150
#	11277
#	23767
#	34215
#	47027
#	59178
#	72664
#	86490
#	98308
#	110292
#	121913
#	131091
#	142374
#	151859
#	162167
#	175587
#	184268
#	196096
#	207372
#	217776
#	234445
#	252912
#	264844
#	273977
#	283428
#	295523
#
# Disc length: 4081 seconds
#
# Revision: 1
# Processed by: cddbd v1.5.2PL0 Copyright (c) Steve Scherf et al.
# Submitted via: audiograbber 1.83.01
#
DISCID=730fef1a
DTITLE=Various Artist - My Name Is Annie
DYEAR=1900
DGENRE=R&B
TTITLE0=Anna Bell Ceaser - Little Annie
TTITLE1=Midnighters - Work With Me Annie
TTITLE2=Bob Halley - Annie Threw A Party
TTITLE3=Midnighters - Annies Aunt Fannie
TTITLE4=Midnighters - Annie Had A Baby
TTITLE5=Danny Taylor - I'm The Father Of Annies Baby
TTITLE6=El Dorados - Annies Answer
TTITLE7=Midnights - Annie Pulled A Humbug
TTITLE8=Plurals - Miss Annie
TTITLE9=Johnny Marlo - Two Ton Annie
TTITLE10=Dave Kinzie - Annie Had A Party
TTITLE11=Cadets - Annie Met Henry
TTITLE12=Joe Perkins - Little Eefin' Annie
TTITLE13=Genos - Slim Little Annie
TTITLE14=Dwellers - Annie
TTITLE15=Little Richard - Annies Back
TTITLE16=Four Dukes - Annie
TTITLE17=P. J. Proby - Work With Me Annie
TTITLE18=Little Jr Parker - Annie Get Your Yo Yo
TTITLE19=Tony Joe White - Polk Salad Annie
TTITLE20=Fantastic Blue Jays - Annie Is A Granny
TTITLE21=Linda Hayes - My Name Ain't Annie
TTITLE22=Hollywood Flames - Annie Dont Love Me No More
TTITLE23=Bings - Annie Kicked The Bucket
TTITLE24=Lena Gordon - Mama Took The Baby
TTITLE25=Nu Tones - Annie Kicked The Bucket
EXTD=
EXTT0=
EXTT1=
EXTT2=
EXTT3=
EXTT4=
EXTT5=
EXTT6=
EXTT7=
EXTT8=
EXTT9=
EXTT10=
EXTT11=
EXTT12=
EXTT13=
EXTT14=
EXTT15=
EXTT16=
EXTT17=
EXTT18=
EXTT19=
EXTT20=
EXTT21=
EXTT22=
EXTT23=
EXTT24=
EXTT25=
PLAYORDER=
